<svg width="375" height="350" viewBox="0 0 375 350" fill="none" xmlns="http://www.w3.org/2000/svg">
<rect width="375" height="350" fill="white"/>
<g filter="url(#filter0_fn_14001_25117)">
<ellipse cx="181.5" cy="276" rx="58.5" ry="7" fill="url(#paint0_linear_14001_25117)"/>
</g>
<g filter="url(#filter1_n_14001_25117)">
<path d="M195.81 47.6446C203.702 46.4457 211.211 51.4486 213.144 59.1938L221.045 90.8436C221.015 90.823 218.286 88.9224 216.359 89.1317C214.258 89.3603 214.022 92.0014 211.921 92.2302C209.984 92.4406 209.172 90.3081 207.236 90.5182C205.134 90.7466 204.899 93.4005 202.796 93.6168C200.879 93.8139 200.088 91.7081 198.17 91.8959C196.045 92.104 195.795 94.7831 193.672 95.0035C191.734 95.2046 190.923 93.0811 188.986 93.2915C186.884 93.52 184.547 96.3902 184.547 96.3902L182.997 63.2784C182.635 55.5553 188.166 48.8063 195.81 47.6446ZM193.186 61.9187C192.249 62.0611 191.606 62.9355 191.748 63.8718C191.89 64.8079 192.765 65.4517 193.701 65.3095C194.637 65.1672 195.281 64.2927 195.139 63.3565C194.996 62.4202 194.122 61.7765 193.186 61.9187ZM202.227 60.5447C201.291 60.687 200.647 61.5615 200.79 62.4977C200.932 63.434 201.806 64.0777 202.743 63.9355C203.679 63.7931 204.323 62.9187 204.18 61.9824C204.038 61.0463 203.163 60.4025 202.227 60.5447Z" fill="url(#paint1_linear_14001_25117)"/>
</g>
<g filter="url(#filter2_n_14001_25117)">
<path d="M256.955 101.099C271.03 105.021 279.81 119.008 277.224 133.389L266.657 192.153C266.657 192.153 263.512 186.879 260.121 185.777C256.441 184.581 254.065 188.815 250.385 187.619C246.994 186.517 247.239 182.346 243.848 181.243C240.168 180.047 237.785 184.303 234.112 183.085C230.763 181.975 231.025 177.866 227.682 176.739C223.978 175.491 221.55 179.778 217.839 178.551C214.454 177.433 214.694 173.278 211.304 172.176C207.63 170.982 201.59 174.007 201.567 174.018L223.832 117.579C229.025 104.415 243.323 97.3007 256.955 101.099ZM257.983 127.451C256.313 126.986 254.582 127.962 254.117 129.632C253.652 131.302 254.629 133.033 256.298 133.498C257.968 133.963 259.699 132.987 260.164 131.317C260.629 129.647 259.653 127.916 257.983 127.451ZM241.857 122.957C240.188 122.492 238.457 123.468 237.991 125.138C237.527 126.808 238.503 128.538 240.173 129.003C241.842 129.468 243.573 128.492 244.038 126.823C244.504 125.153 243.527 123.422 241.857 122.957Z" fill="url(#paint2_linear_14001_25117)"/>
</g>
<g filter="url(#filter3_n_14001_25117)">
<path d="M155.036 149.394C157.733 146.132 162.192 144.92 166.169 146.369L185.999 153.594L185.427 151.491C184.558 148.292 186.447 144.993 189.647 144.123L201.219 140.978C204.419 140.108 207.718 141.997 208.587 145.197L213.603 163.652L215.965 164.513C220.849 166.292 224.564 170.333 225.927 175.35L230.6 192.542L215.013 202.561L213.86 217.382L196.742 234.47L217.888 224.578L224.569 207.218L234.057 205.264L242.283 235.53C243.731 240.859 240.585 246.354 235.255 247.802L146.795 271.844C141.466 273.292 135.971 270.146 134.523 264.816L118.167 204.636C116.804 199.62 117.962 194.254 121.274 190.247L131.527 177.84L137.497 184.249L136.082 198.106L154.669 205.489L142.837 196.27L145.742 184.081L136.982 171.24L155.036 149.394Z" fill="#F3F4F7"/>
<path d="M155.036 149.394C157.733 146.132 162.192 144.92 166.169 146.369L185.999 153.594L185.427 151.491C184.558 148.292 186.447 144.993 189.647 144.123L201.219 140.978C204.419 140.108 207.718 141.997 208.587 145.197L213.603 163.652L215.965 164.513C220.849 166.292 224.564 170.333 225.927 175.35L230.6 192.542L215.013 202.561L213.86 217.382L196.742 234.47L217.888 224.578L224.569 207.218L234.057 205.264L242.283 235.53C243.731 240.859 240.585 246.354 235.255 247.802L146.795 271.844C141.466 273.292 135.971 270.146 134.523 264.816L118.167 204.636C116.804 199.62 117.962 194.254 121.274 190.247L131.527 177.84L137.497 184.249L136.082 198.106L154.669 205.489L142.837 196.27L145.742 184.081L136.982 171.24L155.036 149.394Z" fill="url(#paint3_linear_14001_25117)"/>
<path d="M155.036 149.394C157.733 146.132 162.192 144.92 166.169 146.369L185.999 153.594L185.427 151.491C184.558 148.292 186.447 144.993 189.647 144.123L201.219 140.978C204.419 140.108 207.718 141.997 208.587 145.197L213.603 163.652L215.965 164.513C220.849 166.292 224.564 170.333 225.927 175.35L230.6 192.542L215.013 202.561L213.86 217.382L196.742 234.47L217.888 224.578L224.569 207.218L234.057 205.264L242.283 235.53C243.731 240.859 240.585 246.354 235.255 247.802L146.795 271.844C141.466 273.292 135.971 270.146 134.523 264.816L118.167 204.636C116.804 199.62 117.962 194.254 121.274 190.247L131.527 177.84L137.497 184.249L136.082 198.106L154.669 205.489L142.837 196.27L145.742 184.081L136.982 171.24L155.036 149.394Z" fill="url(#paint4_linear_14001_25117)" fill-opacity="0.1" style="mix-blend-mode:color-burn"/>
</g>
<defs>
<filter id="filter0_fn_14001_25117" x="109" y="255" width="145" height="42" filterUnits="userSpaceOnUse" color-interpolation-filters="sRGB">
<feFlood flood-opacity="0" result="BackgroundImageFix"/>
<feBlend mode="normal" in="SourceGraphic" in2="BackgroundImageFix" result="shape"/>
<feGaussianBlur stdDeviation="7" result="effect1_foregroundBlur_14001_25117"/>
<feTurbulence type="fractalNoise" baseFrequency="2.5 2.5" stitchTiles="stitch" numOctaves="3" result="noise" seed="2906" />
<feColorMatrix in="noise" type="luminanceToAlpha" result="alphaNoise" />
<feComponentTransfer in="alphaNoise" result="coloredNoise1">
<feFuncA type="discrete" tableValues="1 1 1 1 1 1 1 1 1 1 1 1 1 1 1 1 1 1 1 1 1 1 1 1 1 1 1 1 1 1 1 1 1 1 1 1 1 1 1 1 1 1 1 1 1 1 1 1 1 1 1 0 0 0 0 0 0 0 0 0 0 0 0 0 0 0 0 0 0 0 0 0 0 0 0 0 0 0 0 0 0 0 0 0 0 0 0 0 0 0 0 0 0 0 0 0 0 0 0 0 "/>
</feComponentTransfer>
<feComposite operator="in" in2="effect1_foregroundBlur_14001_25117" in="coloredNoise1" result="noise1Clipped" />
<feComponentTransfer in="alphaNoise" result="coloredNoise2">
<feFuncA type="discrete" tableValues="0 0 0 0 0 0 0 0 0 0 0 0 0 0 0 0 0 0 0 0 0 0 0 0 0 0 0 0 0 0 0 0 0 0 0 0 0 0 0 0 0 0 0 0 0 0 0 0 0 1 1 1 1 1 1 1 1 1 1 1 1 1 1 1 1 1 1 1 1 1 1 1 1 1 1 1 1 1 1 1 1 1 1 1 1 1 1 1 1 1 1 1 1 1 1 1 1 1 1 1 "/>
</feComponentTransfer>
<feComposite operator="in" in2="effect1_foregroundBlur_14001_25117" in="coloredNoise2" result="noise2Clipped" />
<feFlood flood-color="rgba(255, 255, 255, 0.2)" result="color1Flood" />
<feComposite operator="in" in2="noise1Clipped" in="color1Flood" result="color1" />
<feFlood flood-color="#48505B" result="color2Flood" />
<feComposite operator="in" in2="noise2Clipped" in="color2Flood" result="color2" />
<feMerge result="effect2_noise_14001_25117">
<feMergeNode in="effect1_foregroundBlur_14001_25117" />
<feMergeNode in="color1" />
<feMergeNode in="color2" />
</feMerge>
</filter>
<filter id="filter1_n_14001_25117" x="182.98" y="47.4678" width="38.0645" height="48.9229" filterUnits="userSpaceOnUse" color-interpolation-filters="sRGB">
<feFlood flood-opacity="0" result="BackgroundImageFix"/>
<feBlend mode="normal" in="SourceGraphic" in2="BackgroundImageFix" result="shape"/>
<feTurbulence type="fractalNoise" baseFrequency="2 2" stitchTiles="stitch" numOctaves="3" result="noise" seed="400" />
<feColorMatrix in="noise" type="luminanceToAlpha" result="alphaNoise" />
<feComponentTransfer in="alphaNoise" result="coloredNoise1">
<feFuncA type="discrete" tableValues="1 1 1 1 1 1 1 1 1 1 1 1 1 1 1 1 1 1 1 1 1 1 1 1 1 1 1 1 1 1 1 1 1 1 1 1 1 1 1 1 1 1 1 1 1 1 1 1 1 1 1 0 0 0 0 0 0 0 0 0 0 0 0 0 0 0 0 0 0 0 0 0 0 0 0 0 0 0 0 0 0 0 0 0 0 0 0 0 0 0 0 0 0 0 0 0 0 0 0 0 "/>
</feComponentTransfer>
<feComposite operator="in" in2="shape" in="coloredNoise1" result="noise1Clipped" />
<feFlood flood-color="rgba(255, 255, 255, 0.5)" result="color1Flood" />
<feComposite operator="in" in2="noise1Clipped" in="color1Flood" result="color1" />
<feMerge result="effect1_noise_14001_25117">
<feMergeNode in="shape" />
<feMergeNode in="color1" />
</feMerge>
</filter>
<filter id="filter2_n_14001_25117" x="201.567" y="100.08" width="76.1074" height="92.0732" filterUnits="userSpaceOnUse" color-interpolation-filters="sRGB">
<feFlood flood-opacity="0" result="BackgroundImageFix"/>
<feBlend mode="normal" in="SourceGraphic" in2="BackgroundImageFix" result="shape"/>
<feTurbulence type="fractalNoise" baseFrequency="2 2" stitchTiles="stitch" numOctaves="3" result="noise" seed="400" />
<feColorMatrix in="noise" type="luminanceToAlpha" result="alphaNoise" />
<feComponentTransfer in="alphaNoise" result="coloredNoise1">
<feFuncA type="discrete" tableValues="1 1 1 1 1 1 1 1 1 1 1 1 1 1 1 1 1 1 1 1 1 1 1 1 1 1 1 1 1 1 1 1 1 1 1 1 1 1 1 1 1 1 1 1 1 1 1 1 1 1 1 0 0 0 0 0 0 0 0 0 0 0 0 0 0 0 0 0 0 0 0 0 0 0 0 0 0 0 0 0 0 0 0 0 0 0 0 0 0 0 0 0 0 0 0 0 0 0 0 0 "/>
</feComponentTransfer>
<feComposite operator="in" in2="shape" in="coloredNoise1" result="noise1Clipped" />
<feFlood flood-color="rgba(255, 255, 255, 0.5)" result="color1Flood" />
<feComposite operator="in" in2="noise1Clipped" in="color1Flood" result="color1" />
<feMerge result="effect1_noise_14001_25117">
<feMergeNode in="shape" />
<feMergeNode in="color1" />
</feMerge>
</filter>
<filter id="filter3_n_14001_25117" x="117.606" y="140.767" width="125.029" height="131.43" filterUnits="userSpaceOnUse" color-interpolation-filters="sRGB">
<feFlood flood-opacity="0" result="BackgroundImageFix"/>
<feBlend mode="normal" in="SourceGraphic" in2="BackgroundImageFix" result="shape"/>
<feTurbulence type="fractalNoise" baseFrequency="2 2" stitchTiles="stitch" numOctaves="3" result="noise" seed="2906" />
<feColorMatrix in="noise" type="luminanceToAlpha" result="alphaNoise" />
<feComponentTransfer in="alphaNoise" result="coloredNoise1">
<feFuncA type="discrete" tableValues="1 1 1 1 1 1 1 1 1 1 1 1 1 1 1 1 1 1 1 1 1 1 1 1 1 1 1 1 1 1 1 1 1 1 1 1 1 1 1 1 1 1 1 1 1 1 1 1 1 1 1 0 0 0 0 0 0 0 0 0 0 0 0 0 0 0 0 0 0 0 0 0 0 0 0 0 0 0 0 0 0 0 0 0 0 0 0 0 0 0 0 0 0 0 0 0 0 0 0 0 "/>
</feComponentTransfer>
<feComposite operator="in" in2="shape" in="coloredNoise1" result="noise1Clipped" />
<feComponentTransfer in="alphaNoise" result="coloredNoise2">
<feFuncA type="discrete" tableValues="0 0 0 0 0 0 0 0 0 0 0 0 0 0 0 0 0 0 0 0 0 0 0 0 0 0 0 0 0 0 0 0 0 0 0 0 0 0 0 0 0 0 0 0 0 0 0 0 0 1 1 1 1 1 1 1 1 1 1 1 1 1 1 1 1 1 1 1 1 1 1 1 1 1 1 1 1 1 1 1 1 1 1 1 1 1 1 1 1 1 1 1 1 1 1 1 1 1 1 1 "/>
</feComponentTransfer>
<feComposite operator="in" in2="shape" in="coloredNoise2" result="noise2Clipped" />
<feFlood flood-color="rgba(255, 255, 255, 0.24)" result="color1Flood" />
<feComposite operator="in" in2="noise1Clipped" in="color1Flood" result="color1" />
<feFlood flood-color="#48505B" result="color2Flood" />
<feComposite operator="in" in2="noise2Clipped" in="color2Flood" result="color2" />
<feMerge result="effect1_noise_14001_25117">
<feMergeNode in="shape" />
<feMergeNode in="color1" />
<feMergeNode in="color2" />
</feMerge>
</filter>
<linearGradient id="paint0_linear_14001_25117" x1="161.477" y1="276" x2="240" y2="276" gradientUnits="userSpaceOnUse">
<stop stop-color="#48505B"/>
<stop offset="1" stop-color="#D4DAE2"/>
</linearGradient>
<linearGradient id="paint1_linear_14001_25117" x1="195.81" y1="47.6447" x2="202.796" y2="93.6198" gradientUnits="userSpaceOnUse">
<stop stop-color="#B7C0CD"/>
<stop offset="1" stop-color="#F3F4F7"/>
</linearGradient>
<linearGradient id="paint2_linear_14001_25117" x1="256.955" y1="101.099" x2="243.647" y2="171.84" gradientUnits="userSpaceOnUse">
<stop stop-color="#B7C0CD"/>
<stop offset="1" stop-color="#F3F4F7"/>
</linearGradient>
<linearGradient id="paint3_linear_14001_25117" x1="140.135" y1="164.93" x2="228.453" y2="240.756" gradientUnits="userSpaceOnUse">
<stop stop-color="#B7C0CD" stop-opacity="0"/>
<stop offset="0.278846" stop-color="#B7C0CD" stop-opacity="0.396853"/>
<stop offset="0.526753" stop-color="#B7C0CD" stop-opacity="0.667117"/>
<stop offset="0.764423" stop-color="#B7C0CD" stop-opacity="0.853245"/>
<stop offset="1" stop-color="#B7C0CD"/>
</linearGradient>
<linearGradient id="paint4_linear_14001_25117" x1="151.143" y1="243.061" x2="155.001" y2="272" gradientUnits="userSpaceOnUse">
<stop stop-opacity="0"/>
<stop offset="0.325941" stop-opacity="0.170009"/>
<stop offset="0.614245" stop-opacity="0.487934"/>
<stop offset="1"/>
</linearGradient>
</defs>
</svg>
